<?xml version="1.0" encoding="utf-8"?>
<!-- Generator: Adobe Illustrator 16.0.0, SVG Export Plug-In . SVG Version: 6.00 Build 0)  -->
<!DOCTYPE svg PUBLIC "-//W3C//DTD SVG 1.1//EN" "http://www.w3.org/Graphics/SVG/1.1/DTD/svg11.dtd">
<svg version="1.1" id="Layer_1" xmlns="http://www.w3.org/2000/svg" xmlns:xlink="http://www.w3.org/1999/xlink" x="0px" y="0px"
	 width="1600px" height="900px" viewBox="0 0 1600 900" enable-background="new 0 0 1600 900" xml:space="preserve">
<g>
	<g>
		<defs>
			<rect id="SVGID_1_" x="350" width="900" height="900"/>
		</defs>
		<clipPath id="SVGID_2_">
			<use xlink:href="#SVGID_1_"  overflow="visible"/>
		</clipPath>
		<g clip-path="url(#SVGID_2_)">
			<rect x="350" fill="#F7B154" width="900" height="900"/>
			<path fill="#A37538" d="M1181.57,748.71c-37.98,17.61-89.82,14.64-136.62,21.72c-15.24,2.34-41.7,4.11-37.62,15.301
				c6.09,14.729,41.7,22.949,33.57,37.68c-7.11,13.53-37.62,12.96-57.57,16.41c-5.64,0.689-11.37,1.319-17.19,1.89
				c-34.859,3.51-72.33,5.43-111.33,5.43c-187.17,0-338.909-44.04-338.909-98.34s151.739-98.34,338.909-98.34
				c155.971,0,287.341,30.57,326.791,72.21c2.64,2.76,4.859,5.61,6.39,8.46c1.53,2.88,1.95,5.76,1.35,8.73
				C1188.17,742.8,1185.74,745.77,1181.57,748.71z"/>
			<g>
				<g>
					
						<polygon fill="none" stroke="#231F20" stroke-width="20" stroke-linecap="round" stroke-linejoin="round" stroke-miterlimit="10" points="
						754.1,124.62 945.83,206.61 945.83,251.94 754.1,226.26 					"/>
					<g>
						<path fill="#0F1242" stroke="#0B0E32" stroke-width="16" stroke-miterlimit="10" d="M772.64,68.67
							c-73.77-12.33-136.71,50.61-124.38,124.38c7.47,44.67,42.63,79.86,87.3,87.3c73.771,12.33,136.711-50.61,124.381-124.38
							C852.47,111.33,817.31,76.14,772.64,68.67z M805.88,102.36c7.83,5.64,14.73,12.51,20.37,20.37l-24.84,24.84
							c-4.83-8.49-11.88-15.54-20.37-20.37L805.88,102.36z M666.47,188.91c-0.75-4.68-1.17-9.51-1.17-14.4
							c0-4.89,0.391-9.72,1.17-14.4h35.13c-1.26,4.59-1.92,9.42-1.92,14.4c0,4.98,0.66,9.81,1.92,14.4H666.47z M702.32,246.66
							c-7.83-5.64-14.73-12.51-20.37-20.37l24.84-24.84c4.83,8.49,11.88,15.54,20.37,20.37L702.32,246.66z M706.79,147.57
							l-24.84-24.84c5.64-7.83,12.51-14.73,20.37-20.37l24.84,24.84C718.7,132.06,711.65,139.11,706.79,147.57z M768.5,262.17
							c-4.68,0.75-9.51,1.17-14.4,1.17c-4.89,0-9.72-0.39-14.399-1.17v-35.16c4.59,1.26,9.42,1.92,14.399,1.92
							c4.98,0,9.811-0.66,14.4-1.92V262.17z M768.5,122.01c-4.59-1.26-9.42-1.92-14.4-1.92c-4.979,0-9.81,0.66-14.399,1.92V86.88
							c4.68-0.75,9.51-1.17,14.399-1.17c4.891,0,9.721,0.39,14.4,1.17V122.01z M805.88,246.66l-24.84-24.84
							c8.49-4.83,15.54-11.88,20.37-20.37l24.84,24.84C820.61,234.15,813.74,241.02,805.88,246.66z M806.6,188.91
							c1.261-4.59,1.921-9.42,1.921-14.4c0-4.979-0.66-9.81-1.921-14.4h35.13c0.75,4.68,1.171,9.51,1.171,14.4
							c0,4.89-0.391,9.72-1.171,14.4H806.6z"/>
						<circle fill="#06071A" cx="754.1" cy="174.51" r="28.65"/>
					</g>
					<g>
						<path fill="#0F1242" stroke="#0B0E32" stroke-width="16" stroke-miterlimit="10" d="M945.83,178.74
							c-28.5,0-51.601,23.1-51.601,51.6s23.101,51.6,51.601,51.6s51.6-23.1,51.6-51.6S974.33,178.74,945.83,178.74z M970.7,195.66
							c3.779,2.7,7.08,6.03,9.779,9.78l-11.939,11.94c-2.311-4.08-5.7-7.47-9.78-9.78L970.7,195.66z M903.71,237.24
							c-0.359-2.25-0.57-4.56-0.57-6.93c0-2.34,0.181-4.68,0.57-6.93h16.891c-0.601,2.19-0.931,4.53-0.931,6.93
							s0.33,4.71,0.931,6.93H903.71z M920.96,264.99c-3.78-2.7-7.08-6.03-9.78-9.78l11.94-11.94c2.31,4.08,5.7,7.47,9.78,9.78
							L920.96,264.99z M923.09,217.38l-11.939-11.94c2.7-3.78,6.029-7.08,9.779-9.78l11.94,11.94
							C928.82,209.94,925.43,213.3,923.09,217.38z M952.729,272.43c-2.25,0.36-4.56,0.57-6.93,0.57s-4.68-0.18-6.93-0.57v-16.89
							c2.189,0.6,4.53,0.93,6.93,0.93c2.4,0,4.71-0.33,6.93-0.93V272.43z M952.729,205.11c-2.189-0.6-4.529-0.93-6.93-0.93
							c-2.399,0-4.71,0.33-6.93,0.93v-16.89c2.25-0.36,4.56-0.57,6.93-0.57s4.68,0.18,6.93,0.57V205.11z M970.7,264.99l-11.94-11.94
							c4.08-2.31,7.47-5.7,9.78-9.78l11.939,11.94C977.78,258.96,974.479,262.29,970.7,264.99z M971.03,237.24
							c0.6-2.19,0.93-4.53,0.93-6.93s-0.33-4.71-0.93-6.93h16.89c0.36,2.25,0.57,4.56,0.57,6.93c0,2.34-0.181,4.68-0.57,6.93H971.03
							z"/>
						<circle fill="#06071A" cx="945.83" cy="230.34" r="13.77"/>
					</g>
				</g>
				<g>
					<path fill="#191C4D" d="M1006.55,745.47l-0.779,0.511c-8.881,5.729-20.791,2.55-25.65-6.841L834.68,458.07
						c-4.26-8.221-1.56-18.33,6.21-23.341l0.78-0.51c8.91-5.729,20.79-2.55,25.65,6.84l145.439,281.07
						C1017.021,730.35,1014.351,740.46,1006.55,745.47z"/>
					<path fill="#0B0E32" d="M860.84,452.22v325.62c0,9.931-8.04,17.94-17.939,17.94c-9.9,0-17.94-8.04-17.94-17.94V452.22
						c0-9.54,7.44-17.34,16.83-17.91c0.39-0.029,0.75-0.029,1.14-0.029c4.95,0,9.45,2.01,12.69,5.25
						C858.83,442.77,860.84,447.27,860.84,452.22z"/>
					<path fill="#0B0E32" d="M850.76,459.54L705.32,740.61c-4.86,9.39-16.771,12.569-25.65,6.84l-0.78-0.51
						c-7.77-5.011-10.47-15.12-6.21-23.341L818.12,442.53c4.71-9.09,15.99-12.36,24.78-7.351c0.3,0.15,0.569,0.33,0.87,0.54
						l0.779,0.511C852.32,441.21,855.021,451.32,850.76,459.54z"/>
					<path fill="#191C4D" d="M842.9,435.18L679.67,747.45l-0.78-0.51c-7.77-5.011-10.47-15.12-6.21-23.341L818.12,442.53
						C822.83,433.44,834.11,430.17,842.9,435.18z"/>
					<path fill="#0B0E32" d="M1006.55,745.47l-0.779,0.511L841.67,434.25c8.91-5.73,20.79-2.55,25.65,6.84l145.439,281.07
						C1017.021,730.35,1014.351,740.46,1006.55,745.47z"/>
					<path fill="#191C4D" d="M842.9,435.18v360.63c-9.9,0-17.94-8.04-17.94-17.939V452.22c0-9.54,7.44-17.34,16.83-17.91
						L842.9,435.18z"/>
					<path fill="#0B0E32" d="M930.979,452.73H754.82c-10.38,0-18.78-8.4-18.78-18.78l0,0c0-10.38,8.4-18.78,18.78-18.78h176.159
						c10.381,0,18.78,8.4,18.78,18.78l0,0C949.76,444.3,941.36,452.73,930.979,452.73z"/>
				</g>
				<g>
					<polygon fill="#FFCD8C" points="742.64,341.16 393.23,543.6 350,568.65 350,113.67 393.23,138.72 					"/>
					<polygon fill="#0F1242" points="742.64,341.16 609.8,417.84 593.36,427.35 593.36,254.97 609.8,264.48 					"/>
					<path fill="#15195C" d="M1011.17,275.34V406.98c0,14.88-12.06,26.939-26.94,26.939H701.6c-8.189,0-15.51-3.63-20.46-9.39
						c-4.05-4.71-6.51-10.86-6.51-17.55V275.34c0-14.88,12.061-26.94,26.94-26.94H984.2c7.83,0,14.88,3.36,19.8,8.67
						C1008.47,261.87,1011.17,268.29,1011.17,275.34z"/>
					<path fill="#787BB5" d="M954.2,307.65H766.97c-7.109,0-12.87-5.761-12.87-12.871l0,0c0-7.11,5.761-12.87,12.87-12.87H954.2
						c7.109,0,12.87,5.76,12.87,12.87l0,0C967.07,301.89,961.31,307.65,954.2,307.65z"/>
					<circle fill="#EF4136" cx="708.74" cy="281.91" r="9.27"/>
					<polygon fill="#0B0E32" points="609.8,264.48 609.8,417.84 593.36,427.35 593.36,254.97 					"/>
					<path fill="#787BB5" d="M888.38,406.65h-2.79c-3.24,0-5.85-2.61-5.85-5.851v-57.96c0-3.24,2.609-5.85,5.85-5.85h2.79
						c3.24,0,5.85,2.609,5.85,5.85v57.96C894.229,404.04,891.62,406.65,888.38,406.65z"/>
					<path fill="#787BB5" d="M914.18,406.65h-2.79c-3.24,0-5.85-2.61-5.85-5.851v-57.96c0-3.24,2.609-5.85,5.85-5.85h2.79
						c3.24,0,5.851,2.609,5.851,5.85v57.96C920.03,404.04,917.42,406.65,914.18,406.65z"/>
					<path fill="#787BB5" d="M939.979,406.65h-2.789c-3.24,0-5.851-2.61-5.851-5.851v-57.96c0-3.24,2.61-5.85,5.851-5.85h2.789
						c3.24,0,5.851,2.609,5.851,5.85v57.96C945.83,404.04,943.22,406.65,939.979,406.65z"/>
					<path fill="#787BB5" d="M965.78,406.65h-2.79c-3.24,0-5.851-2.61-5.851-5.851v-57.96c0-3.24,2.61-5.85,5.851-5.85h2.79
						c3.24,0,5.85,2.609,5.85,5.85v57.96C971.63,404.04,969.021,406.65,965.78,406.65z"/>
				</g>
				<path opacity="0.3" enable-background="new    " d="M1011.17,275.34V406.98c0,14.88-12.06,26.939-26.94,26.939H701.6
					c-8.189,0-15.51-3.63-20.46-9.39c76.83-8.49,260.461-41.73,322.891-167.46C1008.47,261.87,1011.17,268.29,1011.17,275.34z"/>
			</g>
		</g>
	</g>
</g>
</svg>
